<svg width="48" height="48" viewBox="0 0 48 48" fill="none" xmlns="http://www.w3.org/2000/svg">
<g id="vuesax/bold/diagram">
<g id="diagram">
<path id="Vector" d="M44 45.5H10C5.86 45.5 2.5 42.14 2.5 38V4C2.5 3.18 3.18 2.5 4 2.5C4.82 2.5 5.5 3.18 5.5 4V38C5.5 40.48 7.52 42.5 10 42.5H44C44.82 42.5 45.5 43.18 45.5 44C45.5 44.82 44.82 45.5 44 45.5Z" fill="#353535"/>
<path id="Vector_2" d="M9.99964 35.5C9.65964 35.5 9.29964 35.38 9.01964 35.14C8.39964 34.6 8.31964 33.66 8.85964 33.02L18.0396 22.3C19.0396 21.14 20.4796 20.44 21.9996 20.38C23.5196 20.34 25.0196 20.9 26.0996 21.98L27.9996 23.88C28.4996 24.38 29.1396 24.62 29.8596 24.62C30.5596 24.6 31.1996 24.28 31.6596 23.74L40.8396 13.02C41.3796 12.4 42.3196 12.32 42.9596 12.86C43.5796 13.4 43.6596 14.34 43.1196 14.98L33.9396 25.7C32.9396 26.86 31.4996 27.56 29.9796 27.62C28.4396 27.66 26.9596 27.1 25.8796 26.02L23.9996 24.12C23.4996 23.62 22.8396 23.36 22.1396 23.38C21.4396 23.4 20.7996 23.72 20.3396 24.26L11.1596 34.98C10.8396 35.32 10.4196 35.5 9.99964 35.5Z" fill="#353535"/>
</g>
</g>
</svg>
