<svg width="48" height="48" viewBox="0 0 48 48" fill="none" xmlns="http://www.w3.org/2000/svg">
<path d="M32.7599 45.5H6.47985C4.57985 45.5 2.81986 44.6201 1.67986 43.0801C0.519863 41.5201 0.179881 39.56 0.759881 37.7L9.17986 10.6399C9.93986 8.11989 12.2599 6.3999 14.8999 6.3999H39.4999C41.9199 6.3999 44.0999 7.84008 45.0199 10.0801C45.5199 11.2401 45.6199 12.5601 45.3199 13.8601L38.5799 40.9199C37.9399 43.6199 35.5399 45.5 32.7599 45.5ZM14.9199 9.41992C13.6199 9.41992 12.4399 10.28 12.0599 11.54L3.63989 38.6001C3.35989 39.5401 3.51987 40.5201 4.11987 41.3201C4.67987 42.0801 5.55987 42.52 6.49987 42.52H32.7799C34.1599 42.52 35.3599 41.58 35.6799 40.24L42.4199 13.1599C42.5799 12.4999 42.5399 11.84 42.2799 11.26C41.7999 10.12 40.7399 9.3999 39.5199 9.3999H14.9199V9.41992Z" fill="#353535"/>
<path d="M41.56 45.4999H32C31.18 45.4999 30.5 44.8199 30.5 43.9999C30.5 43.1799 31.18 42.4999 32 42.4999H41.56C42.38 42.4999 43.14 42.16 43.7 41.56C44.26 40.96 44.54 40.16 44.48 39.34L42.5 12.1C42.44 11.28 43.06 10.5599 43.88 10.4999C44.7 10.4599 45.42 11.0598 45.48 11.8798L47.46 39.1201C47.58 40.7601 47 42.4 45.88 43.6C44.78 44.82 43.2 45.4999 41.56 45.4999Z" fill="#353535"/>
<path d="M19.3595 14.2599C19.2395 14.2599 19.1195 14.2399 18.9995 14.2199C18.1995 14.0199 17.6996 13.2198 17.8996 12.3998L19.9795 3.75992C20.1795 2.95992 20.9795 2.45982 21.7995 2.65982C22.5995 2.85982 23.0996 3.65989 22.8996 4.47989L20.8196 13.12C20.6596 13.8 20.0395 14.2599 19.3595 14.2599Z" fill="#353535"/>
<path d="M32.7589 14.28C32.6589 14.28 32.5389 14.2799 32.4389 14.2399C31.6389 14.0599 31.1189 13.2599 31.2789 12.4599L33.1589 3.77997C33.3389 2.95997 34.1389 2.46006 34.9389 2.62006C35.7389 2.78006 36.2589 3.59985 36.0989 4.39985L34.2189 13.08C34.0789 13.8 33.4589 14.28 32.7589 14.28Z" fill="#353535"/>
<path d="M31.4004 25.5H15.4004C14.5804 25.5 13.9004 24.82 13.9004 24C13.9004 23.18 14.5804 22.5 15.4004 22.5H31.4004C32.2204 22.5 32.9004 23.18 32.9004 24C32.9004 24.82 32.2204 25.5 31.4004 25.5Z" fill="#353535"/>
<path d="M29.4004 33.5H13.4004C12.5804 33.5 11.9004 32.82 11.9004 32C11.9004 31.18 12.5804 30.5 13.4004 30.5H29.4004C30.2204 30.5 30.9004 31.18 30.9004 32C30.9004 32.82 30.2204 33.5 29.4004 33.5Z" fill="#353535"/>
</svg>
