<svg width="48" height="48" viewBox="0 0 48 48" fill="none" xmlns="http://www.w3.org/2000/svg">
<path d="M24 25.5C17.66 25.5 12.5 20.34 12.5 14C12.5 7.66 17.66 2.5 24 2.5C30.34 2.5 35.5 7.66 35.5 14C35.5 20.34 30.34 25.5 24 25.5ZM24 5.5C19.32 5.5 15.5 9.32 15.5 14C15.5 18.68 19.32 22.5 24 22.5C28.68 22.5 32.5 18.68 32.5 14C32.5 9.32 28.68 5.5 24 5.5Z" fill="#353535"/>
<path d="M41.1803 45.5C40.3603 45.5 39.6803 44.82 39.6803 44C39.6803 37.1 32.6403 31.5 24.0003 31.5C15.3603 31.5 8.32031 37.1 8.32031 44C8.32031 44.82 7.64031 45.5 6.82031 45.5C6.00031 45.5 5.32031 44.82 5.32031 44C5.32031 35.46 13.7003 28.5 24.0003 28.5C34.3003 28.5 42.6803 35.46 42.6803 44C42.6803 44.82 42.0003 45.5 41.1803 45.5Z" fill="#353535"/>
</svg>
