<svg width="48" height="48" viewBox="0 0 48 48" fill="none" xmlns="http://www.w3.org/2000/svg">
<g id="vuesax/outline/home-wifi">
<g id="home-wifi">
<path id="Vector" d="M35.1997 45.12H12.7997C9.15966 45.12 5.83966 42.3199 5.23966 38.7199L2.57969 22.8C2.15969 20.32 3.3597 17.14 5.3397 15.56L19.1997 4.45988C21.8797 2.29988 26.0997 2.3199 28.7997 4.4799L42.6596 15.56C44.6196 17.14 45.8197 20.32 45.4197 22.8L42.7597 38.7199C42.1597 42.2599 38.7797 45.12 35.1997 45.12ZM23.9797 5.8798C22.9197 5.8798 21.8597 6.19999 21.0797 6.81999L7.21964 17.9198C6.07964 18.8398 5.29965 20.88 5.53965 22.32L8.19968 38.2399C8.55968 40.3399 10.6597 42.12 12.7997 42.12H35.1997C37.3397 42.12 39.4397 40.3399 39.7997 38.2199L42.4597 22.3C42.6997 20.86 41.8997 18.7998 40.7797 17.8998L26.9197 6.81999C26.1197 6.19999 25.0597 5.8798 23.9797 5.8798Z" fill="#353535"/>
<path id="Vector_2" d="M28.2411 30.2599C27.8611 30.2599 27.5011 30.12 27.2011 29.84C25.2611 27.98 22.7411 27.98 20.7811 29.84C20.1811 30.42 19.241 30.3999 18.661 29.7999C18.081 29.1999 18.1011 28.2598 18.7011 27.6798C21.8011 24.6998 26.1411 24.6998 29.2611 27.6798C29.8611 28.2598 29.8811 29.1999 29.3011 29.7999C29.0411 30.0999 28.6411 30.2599 28.2411 30.2599Z" fill="#353535"/>
<path id="Vector_3" d="M32.4807 26.0201C32.1007 26.0201 31.7207 25.8802 31.4407 25.6002C30.5007 24.6802 29.4408 23.94 28.3208 23.4C25.5208 22.06 22.4607 22.06 19.6807 23.4C18.5607 23.94 17.5207 24.6802 16.5607 25.6002C15.9807 26.1802 15.0207 26.1801 14.4407 25.5801C13.8607 24.9801 13.8808 24.04 14.4608 23.46C15.6408 22.3 16.9607 21.38 18.3807 20.7C22.0007 18.96 26.0007 18.96 29.6007 20.7C31.0207 21.38 32.3408 22.3 33.5208 23.46C34.1208 24.04 34.1207 24.9801 33.5407 25.5801C33.2607 25.8601 32.8807 26.0201 32.4807 26.0201Z" fill="#353535"/>
<path id="Vector_4" d="M24.0011 35C23.4811 35 22.9811 34.8 22.5811 34.42C21.8011 33.64 21.8011 32.3801 22.5811 31.6001C23.3611 30.8201 24.6411 30.8201 25.4211 31.6001C26.2011 32.3801 26.2011 33.64 25.4211 34.42C25.0211 34.8 24.5211 35 24.0011 35Z" fill="#353535"/>
</g>
</g>
</svg>
