<svg xmlns="http://www.w3.org/2000/svg" width="14" height="14" fill="none" viewBox="0 0 14 14" id="cross"><path fill="#000" fill-rule="evenodd" d="M7 12C9.76142 12 12 9.76142 12 7C12 4.23858 9.76142 2 7 2C4.23858 2 2 4.23858 2 7C2 9.76142 4.23858 12 7 12ZM7 13C10.3137 13 13 10.3137 13 7C13 3.68629 10.3137 1 7 1C3.68629 1 1 3.68629 1 7C1 10.3137 3.68629 13 7 13Z" clip-rule="evenodd"></path><path fill="#000" fill-rule="evenodd" d="M9.12131 4.87868C9.31658 5.07395 9.31658 5.39053 9.12131 5.58579L5.58578 9.12133C5.39052 9.31659 5.07394 9.31659 4.87867 9.12133C4.68341 8.92606 4.68341 8.60948 4.87867 8.41422L8.41421 4.87868C8.60947 4.68342 8.92605 4.68342 9.12131 4.87868Z" clip-rule="evenodd"></path><path fill="#000" fill-rule="evenodd" d="M9.12132 9.12133C8.92605 9.31659 8.60947 9.31659 8.41421 9.12133L4.87868 5.5858C4.68341 5.39053 4.68341 5.07395 4.87868 4.87869C5.07394 4.68343 5.39052 4.68343 5.58578 4.87869L9.12132 8.41422C9.31658 8.60949 9.31658 8.92607 9.12132 9.12133Z" clip-rule="evenodd"></path></svg>