<svg width="16" height="16" viewBox="0 0 16 16" fill="none" xmlns="http://www.w3.org/2000/svg">
<path d="M13.9999 4.48681C13.9866 4.48681 13.9666 4.48681 13.9466 4.48681C10.4199 4.13348 6.89994 4.00015 3.41328 4.35348L2.05328 4.48681C1.77328 4.51348 1.52661 4.31348 1.49994 4.03348C1.47328 3.75348 1.67328 3.51348 1.94661 3.48681L3.30661 3.35348C6.85328 2.99348 10.4466 3.13348 14.0466 3.48681C14.3199 3.51348 14.5199 3.76015 14.4933 4.03348C14.4733 4.29348 14.2533 4.48681 13.9999 4.48681Z" fill="#353535"/>
<path d="M5.66663 3.8135C5.63997 3.8135 5.6133 3.8135 5.57997 3.80683C5.3133 3.76016 5.12663 3.50016 5.1733 3.2335L5.31997 2.36016C5.42663 1.72016 5.5733 0.833496 7.12663 0.833496H8.8733C10.4333 0.833496 10.58 1.7535 10.68 2.36683L10.8266 3.2335C10.8733 3.50683 10.6866 3.76683 10.42 3.80683C10.1466 3.8535 9.88663 3.66683 9.84663 3.40016L9.69997 2.5335C9.60663 1.9535 9.58663 1.84016 8.87997 1.84016H7.1333C6.42663 1.84016 6.4133 1.9335 6.3133 2.52683L6.15997 3.3935C6.11997 3.64016 5.90663 3.8135 5.66663 3.8135Z" fill="#353535"/>
<path d="M10.14 15.1667H5.85997C3.53331 15.1667 3.43997 13.8801 3.36664 12.8401L2.93331 6.12672C2.91331 5.85338 3.12664 5.61338 3.39997 5.59338C3.67997 5.58005 3.91331 5.78672 3.93331 6.06005L4.36664 12.7734C4.43997 13.7867 4.46664 14.1667 5.85997 14.1667H10.14C11.54 14.1667 11.5666 13.7867 11.6333 12.7734L12.0666 6.06005C12.0866 5.78672 12.3266 5.58005 12.6 5.59338C12.8733 5.61338 13.0866 5.84672 13.0666 6.12672L12.6333 12.8401C12.56 13.8801 12.4666 15.1667 10.14 15.1667Z" fill="#353535"/>
<path d="M9.10672 11.5H6.88672C6.61339 11.5 6.38672 11.2733 6.38672 11C6.38672 10.7267 6.61339 10.5 6.88672 10.5H9.10672C9.38005 10.5 9.60672 10.7267 9.60672 11C9.60672 11.2733 9.38005 11.5 9.10672 11.5Z" fill="#353535"/>
<path d="M9.66671 8.8335H6.33337C6.06004 8.8335 5.83337 8.60683 5.83337 8.3335C5.83337 8.06016 6.06004 7.8335 6.33337 7.8335H9.66671C9.94004 7.8335 10.1667 8.06016 10.1667 8.3335C10.1667 8.60683 9.94004 8.8335 9.66671 8.8335Z" fill="#353535"/>
</svg>
