<!DOCTYPE svg PUBLIC "-//W3C//DTD SVG 1.1//EN" "http://www.w3.org/Graphics/SVG/1.1/DTD/svg11.dtd">

<!-- Uploaded to: SVG Repo, www.svgrepo.com, Transformed by: SVG Repo Mixer Tools -->
<svg width="212px" height="212px" viewBox="0 0 28.00 28.00" version="1.1" xmlns="http://www.w3.org/2000/svg" xmlns:xlink="http://www.w3.org/1999/xlink" xmlns:sketch="http://www.bohemiancoding.com/sketch/ns" fill="#417F56" transform="matrix(-1, 0, 0, 1, 0, 0)">

<g id="SVGRepo_bgCarrier" stroke-width="0"/>

<g id="SVGRepo_tracerCarrier" stroke-linecap="round" stroke-linejoin="round" stroke="#417F56" stroke-width="0.05600000000000001"/>

<g id="SVGRepo_iconCarrier"> <title>align-left</title> <desc>Created with Sketch Beta.</desc> <defs> </defs> <g id="Page-1" stroke-width="0.00028" fill="none" fill-rule="evenodd" sketch:type="MSPage"> <g id="Icon-Set" sketch:type="MSLayerGroup" transform="translate(-308.000000, -206.000000)" fill="#417F56"> <path d="M335,222 L309,222 C308.447,222 308,222.448 308,223 C308,223.553 308.447,224 309,224 L335,224 C335.553,224 336,223.553 336,223 C336,222.448 335.553,222 335,222 L335,222 Z M324,230 L309,230 C308.447,230 308,230.447 308,231 C308,231.553 308.447,232 309,232 L324,232 C324.553,232 325,231.553 325,231 C325,230.447 324.553,230 324,230 L324,230 Z M309,208 L335,208 C335.553,208 336,207.553 336,207 C336,206.448 335.553,206 335,206 L309,206 C308.447,206 308,206.448 308,207 C308,207.553 308.447,208 309,208 L309,208 Z M309,216 L327,216 C327.553,216 328,215.553 328,215 C328,214.448 327.553,214 327,214 L309,214 C308.447,214 308,214.448 308,215 C308,215.553 308.447,216 309,216 L309,216 Z" id="align-left" sketch:type="MSShapeGroup"> </path> </g> </g> </g>

</svg>